<svg xmlns="http://www.w3.org/2000/svg" viewBox="0 0 64 64">
    <rect id="Rectangle" fill="#193C2E" x="0" y="0" width="64" height="64"></rect>
    <g fill="none">
        <rect fill="#FFF" transform="rotate(8.860000) " x="14.5" y="11.5" width="7.01" height="7.01" rx="3"></rect>
        <path d="M29.5,31.9740343 C21.35,30.7040343 14.99,23.67 15.93,17.67 C16.87,11.67 25.61,5.44 33.76,6.71 C41.91,7.98 48.4896161,16.1869812 47.5596161,22.1869812 C46.6296161,28.1869812 37.66,33.2440343 29.5,31.9740343 Z" stroke="#FFF" fill="#FFF"></path>
        <path d="M47.77,19.55 C47.35,27.43 37.38,29.7551257 32,28.128625" stroke="#193C2E" stroke-width="2"></path>
        <path d="M40.8134722,48.318048 C39.7642589,55.05586 33.9549302,59.7502372 27.847404,58.8003161 C21.7398778,57.8503951 17.6313791,51.6096349 18.6805925,44.8718229 C19.7298059,38.134011 19.5972736,33.5279985 31.5030842,35.3063391 C43.4088948,37.0846796 41.8626856,41.5802361 40.8134722,48.318048 L40.8134722,48.318048 Z" stroke="#FFF" fill="#FFF" stroke-linecap="round"></path>
        <rect fill="#193C2E" transform="rotate(9.000000) " x="23.1" y="10.4" width="19" height="8" rx="4"></rect>
        <circle fill="#FFF" cx="26" cy="18.8" r="2"></circle>
        <circle fill="#FFF" cx="33.8" cy="20" r="2"></circle>
        <path d="M19.94,38.76 C19.94,38.76 12.22,38.48 13.31,43.69 C14.4,48.9 21.08,51.33 21.08,51.33" stroke="#FFF" stroke-width="3"></path>
        <rect fill="#FFF" x="44.3887728" y="18.2315147" width="7.01" height="7.01" rx="3.21"></rect>
        <rect fill="#193C2E" transform="rotate(8.860000) " x="29.3" y="21.0" width="8" height="4" rx="0.64"></rect>
        <path d="M28.8310833,8.15254525 C28.8310833,8.15254525 51.1984593,1.2829107 48.57,18.38 L28.8310833,8.15254525 Z" stroke="#FFFFFF" stroke-width="2"></path>
        <path d="M40.52,41.76 C40.52,41.76 48.24,41.48 47.15,46.69 C46.06,51.9 36,53.8842976 36,53.8842976" stroke="#FFF" stroke-width="3"></path>
    </g>
</svg>
